<?xml version="1.0" encoding="UTF-8"?>
<svg version="1.1" viewBox="0 0 2048 2048" width="1280" height="1280" xmlns="http://www.w3.org/2000/svg">
<path transform="translate(569,141)" d="m0 0 18 1 14 4 11 6 11 9 10 13 5 12 3 13v12l-2 12-7 16-8 14-35 55-12 19-8 13-10 15-13 21-7 11-12 19-14 22-12 19-8 13-14 22-5 7 1 4 14 12 10 8 272 221 11 9 48 39 14 11 10 9 12 12 8 14 4 14 1 10-2 17-11 53-16 76-26 124-17 81v3l1-2h2l2-4 10-13 12-16 16-21 9-12 16-21 13-17 12-16 10-13 12-16 13-17 12-16 16-21 12-16 14-18 8-11 13-17 12-16 10-13 14-19 11-14 9-12 7-9 9-12 14-19v-5h-2l-8-10-13-15-36-42-9-10-9-11-12-14-9-10-9-11-10-11-9-11-12-14-9-10-9-11-9-10-9-11-10-11-9-11-26-30-72-84-9-14-5-15-1-7v-10l3-15 4-9 7-12 11-13 11-14 13-16 11-14 13-16 20-25 11-14 14-17 11-14 14-17 11-14 9-11 11-14 10-12 8-11h2l2-4 9-10 8-7 14-7 12-3h31l443 31 372 26 68 5 20 2 14 4 14 8 13 13 6 10 5 14 1 5v23l-5 74-10 140-7 102-24 344-10 143-10 144-9 127-11 159-6 85-10 144-8 114-3 23-5 13-7 11-11 11-10 6-13 5-10 2h-17l-79-7-879-80-86-8-15-4-10-5-13-10-8-10-8-16-14-41-88-264-3-15-3-24 1-16 10-48 19-91 64-304 13-61 11-54-10-9-14-11-13-11-10-8-32-26-10-8-22-18-32-26-11-9-16-13-11-9-16-13-14-11-13-11-14-11-13-11-20-16-13-11-14-11-17-14-10-8-22-18-32-26-11-9-12-11-6-7-7-12-4-14-1-15 4-18 7-14 11-17 36-57 14-22 12-19 14-22 24-38 9-15-16 2-260 18-11 1 10 148 24 344 34 486 12 169v6l167-17 71-7 16-1 13 2 14 5 11 7 10 9 8 12 5 13 2 9v16l-3 13-8 16-11 12-8 6-10 5-16 4-35 4-190 19-27 3 1 4 9 134 3 45 36-3 173-13 68-5h26l12 3 12 6 10 8 9 10 8 16 3 12v19l-3 12-6 12-9 12-10 8-12 6-16 4-17 2-323 24h-35l-14-5-11-7-10-9-7-10-6-13-3-17-4-52-19-273-20-286-17-243-16-228-9-131-19-270-7-100v-26l5-16 7-12 9-10 13-9 13-5 22-3 83-6 358-25zm500 137-9 10-10 13-13 16-11 14-13 16-11 14-13 16-11 14-9 11-13 16-11 14-5 7 1 4 13 15 72 84 9 10 9 11 9 10 9 11 9 10 9 11 9 10 9 11 10 11 9 11 10 11 9 11 26 30 48 56 9 10 9 11 7 10 6 12 3 11 1 13-3 17-8 16-10 14-10 13-12 16-16 21-18 24-10 13-8 11-14 18-14 19-14 18-27 36-13 17-10 13-8 11-14 18-14 19-14 18-14 19-10 13-15 20-11 14-8 11-10 13-15 20-10 13-13 17-12 16-16 21-18 24-13 17-12 16-10 13-12 16-13 17-12 16-10 13-9 12-1 1v7l27 81 14 43 14 41 14 43 8 23 1 1 39 4 890 81h9l2-17 7-100 4-56v-4l-12-2-809-78-19-3-12-5-11-7-7-7-9-14-5-13-1-5v-20l4-15 6-12 11-12 10-7 8-4 11-3 7-1h11l128 12 696 67 2-4 3-38 9-128 16-228 7-102 10-141 7-100 9-129 7-100 7-101 6-88-3-1-799-56h-8z"/>
<path transform="translate(1537,512)" d="m0 0h30l17 3 20 6 16 8 11 6 13 10 12 11 10 11 9 13 11 21 7 22 3 16v35l-5 23-6 17-10 19-8 11-9 11-4 5-14 11-8 6-18 10-16 6-22 6-8 1h-33l-13-2-22-7-12-5-17-10-16-13-12-12-11-14-10-17-6-15-6-21-2-11-1-16 2-23 4-16 7-21 12-22 12-14 9-10 11-9 12-9 17-9 13-5 19-5z"/>
</svg>
