<svg width="200" height="119" viewBox="0 0 200 119" fill="none" xmlns="http://www.w3.org/2000/svg">
<rect x="0.25" y="0.25" width="199.5" height="118.5" rx="9.75" fill="#18181B" stroke="#1E1E21" stroke-width="0.5"/>
<rect x="10" y="33" width="56" height="70" rx="5" fill="#27272A"/>
<rect x="10" y="15" width="82" height="10" rx="3" fill="#27272A"/>
<rect x="72" y="33" width="56" height="70" rx="5" fill="#27272A"/>
<rect x="134" y="33" width="56" height="70" rx="5" fill="#27272A"/>
<path d="M184.5 10L183.505 7.13703L181 6L183.505 4.86297L184.5 2L185.495 4.86297L188 6L185.495 7.13703L184.5 10Z" fill="#27272A"/>
<path d="M173.5 16L171.937 11.7055L168 10L171.937 8.29446L173.5 4L175.063 8.29446L179 10L175.063 11.7055L173.5 16Z" fill="#27272A"/>
<path d="M181 31L178.442 23.8426L172 21L178.442 18.1574L181 11L183.558 18.1574L190 21L183.558 23.8426L181 31Z" fill="#27272A"/>
</svg>
