<?xml version="1.0" encoding="UTF-8"?>
<svg version="1.1" viewBox="0 0 2048 2048" width="1280" height="1280" xmlns="http://www.w3.org/2000/svg">
<path transform="translate(189,895)" d="m0 0h1669l22 2 16 4 18 8 11 6 12 9 10 9 7 7 11 15 9 17 6 17 4 20v30l-4 20-6 16-7 14-8 12-8 10-9 9-13 10-14 8-16 7-19 5-16 2h-1682l-21-3-18-6-16-8-12-8-14-12-10-11-7-10-8-14-7-17-4-16-2-17v-11l2-18 5-19 7-17 10-16 8-10 15-15 16-11 15-8 18-6 17-3z"/>
<path transform="translate(189,127)" d="m0 0h1669l22 2 16 4 18 8 11 6 12 9 10 9 7 7 11 15 9 17 6 17 4 20v30l-4 20-6 16-7 14-8 12-8 10-9 9-13 10-14 8-16 7-19 5-16 2h-1682l-21-3-18-6-16-8-12-8-14-12-10-11-7-10-8-14-7-17-4-16-2-17v-11l2-18 5-19 7-17 10-16 8-10 15-15 16-11 15-8 18-6 17-3z"/>
<path transform="translate(189,1663)" d="m0 0h1669l22 2 16 4 18 8 11 6 12 9 10 9 7 7 11 15 9 17 6 17 4 20v30l-4 20-6 16-7 14-8 12-8 10-9 9-13 10-14 8-16 7-19 5-16 2h-1681l-17-2-18-5-18-8-15-10-14-12-10-11-12-18-8-17-5-17-2-11-1-11v-11l2-18 5-19 7-17 10-16 8-10 15-15 16-11 15-8 18-6 17-3z"/>
<path transform="translate(575,1279)" d="m0 0h896l24 2 16 4 15 6 15 8 12 9 10 9 7 7 11 15 9 17 6 16 4 20v31l-4 20-6 16-7 14-8 12-8 10-9 9-13 10-14 8-16 7-19 5-16 2h-913l-17-2-15-4-19-8-16-10-15-13-10-11-7-10-8-14-7-17-4-16-2-16v-14l3-21 5-17 6-14 10-16 8-10 15-15 16-11 15-8 18-6 17-3z"/>
<path transform="translate(575,511)" d="m0 0h896l24 2 16 4 15 6 15 8 12 9 10 9 7 7 11 15 9 17 6 16 4 20v31l-4 20-6 16-7 14-8 12-8 10-9 9-13 10-14 8-16 7-19 5-16 2h-913l-17-2-15-4-19-8-16-10-15-13-10-11-7-10-8-14-7-17-4-16-2-16v-14l3-21 5-17 6-14 10-16 8-10 15-15 16-11 15-8 18-6 17-3z"/>
</svg>
